<?xml version="1.0" encoding="UTF-8" standalone="no"?>
<svg
   xmlns:dc="http://purl.org/dc/elements/1.1/"
   xmlns:cc="http://creativecommons.org/ns#"
   xmlns:rdf="http://www.w3.org/1999/02/22-rdf-syntax-ns#"
   xmlns:svg="http://www.w3.org/2000/svg"
   xmlns="http://www.w3.org/2000/svg"
   id="svg5776"
   height="500"
   width="1000"
   version="1.1">
  <metadata
     id="metadata5782">
    <rdf:RDF>
      <cc:Work
         rdf:about="">
        <dc:format>image/svg+xml</dc:format>
        <dc:type
           rdf:resource="http://purl.org/dc/dcmitype/StillImage" />
        <dc:title></dc:title>
      </cc:Work>
    </rdf:RDF>
  </metadata>
  <defs
     id="defs5780" />
  <!-- Created by MarianSigler, mariansigler@gmail.com -->
  <path
     id="path5768"
     d="M 295.78419,86.816926 L 295.78419,335.08252 L 687.71625,335.40310 C 664.71649,354.19396 650.35734,380.09418 650.54503,414.08813 L 261.47933,413.85667 C 257.75238,281.97351 70.642616,282.42223 66.576854,413.09434 C 38.473995,412.88466 34.575813,406.50199 34.304870,380.61469 L 34.304868,281.61469 C 33.952015,237.37253 28.426810,266.57731 61.177014,182.67997 C 94.875059,93.246445 85.585107,101.51291 116.06480,99.204795 L 295.78419,86.816926 z M 217.93865,233.19966 L 219.48981,127.72046 L 119.43969,133.92512 C 101.20003,135.14704 101.04823,135.26154 94.621050,156.41701 L 69.026832,224.66825 C 60.428592,245.60250 61.797130,251.77115 85.314062,248.71131 L 217.93865,233.19966 z M 966.63494,335.59074 L 966.82552,391.36792 L 902.21802,414.23783 L 845.49140,414.20156 C 845.72230,381.85903 832.28136,354.65711 808.44981,335.54893 L 966.63494,335.59074 z "
     style="fill:black; stroke:none; fill-rule:evenodd" />
  <rect
     id="rect5770"
     style="fill:black; stroke:none"
     width="631.32404"
     height="301.70154"
     y="12.158683"
     x="335.82718" />
  <circle
     id="circle5772"
     style="fill:black; stroke:none"
     cy="412"
     cx="164"
     r="77" />
  <circle
     id="circle5774"
     style="fill:black; stroke:none"
     cy="412"
     cx="748"
     r="77" />
  <rect
     ry="10.471093"
     y="57.463417"
     x="366.46689"
     height="113.7582"
     width="173.48686"
     id="rect6329"
     style="fill:#ffffff;fill-opacity:1;stroke:none;stroke-width:8;stroke-linecap:round;stroke-linejoin:round;stroke-miterlimit:4;stroke-dasharray:none;stroke-dashoffset:0;stroke-opacity:1;paint-order:fill markers stroke" />
  <rect
     ry="10.471093"
     y="57.452721"
     x="564.12378"
     height="113.7582"
     width="173.48686"
     id="rect6329-4"
     style="fill:#ffffff;fill-opacity:1;stroke:none;stroke-width:8;stroke-linecap:round;stroke-linejoin:round;stroke-miterlimit:4;stroke-dasharray:none;stroke-dashoffset:0;stroke-opacity:1;paint-order:fill markers stroke" />
  <rect
     ry="10.471093"
     y="57.422287"
     x="761.78259"
     height="113.7582"
     width="173.48686"
     id="rect6329-4-1"
     style="fill:#ffffff;fill-opacity:1;stroke:none;stroke-width:8;stroke-linecap:round;stroke-linejoin:round;stroke-miterlimit:4;stroke-dasharray:none;stroke-dashoffset:0;stroke-opacity:1;paint-order:fill markers stroke" />
</svg>
